<svg xmlns="http://www.w3.org/2000/svg" viewBox="0 0 500 200">
  <!-- Background rectangle with rounded corners -->
  <rect x="10" y="20" width="480" height="160" rx="20" fill="#f0f8ff" stroke="#3a86ff" stroke-width="4"/>
  
  <!-- Left side: Interviewer and interviewee figures -->
  <g transform="translate(-30, 0)">
    <!-- Interviewer -->
    <path d="M90 140 C100 110, 130 100, 130 120 L130 160" fill="none" stroke="#3a86ff" stroke-width="5" stroke-linecap="round"/>
    <circle cx="110" cy="80" r="20" fill="#3a86ff"/>
    
    <!-- Interviewee -->
    <path d="M180 140 C170 110, 140 100, 140 120 L140 160" fill="none" stroke="#2b2d42" stroke-width="5" stroke-linecap="round"/>
    <circle cx="160" cy="80" r="20" fill="#2b2d42"/>
    
    <!-- Conversation bubbles -->
    <path d="M80 70 Q70 55, 85 50 Q100 45, 90 65 Z" fill="#3a86ff" stroke="#3a86ff" stroke-width="2"/>
    <path d="M190 70 Q200 55, 185 50 Q170 45, 180 65 Z" fill="#2b2d42" stroke="#2b2d42" stroke-width="2"/>
  </g>
  
  <!-- Middle: Clipboard -->
  <g transform="translate(50, 0)">
    <rect x="120" y="50" width="60" height="100" rx="5" fill="white" stroke="#2b2d42" stroke-width="3"/>
    <rect x="130" y="40" width="40" height="10" rx="3" fill="white" stroke="#2b2d42" stroke-width="3"/>
    <line x1="135" y1="70" x2="165" y2="70" stroke="#2b2d42" stroke-width="2"/>
    <line x1="135" y1="85" x2="165" y2="85" stroke="#2b2d42" stroke-width="2"/>
    <line x1="135" y1="100" x2="165" y2="100" stroke="#2b2d42" stroke-width="2"/>
    <line x1="135" y1="115" x2="155" y2="115" stroke="#2b2d42" stroke-width="2"/>
  </g>
  
  <!-- Right side: Checkmark and devices -->
  <g transform="translate(80, 0)">
    <!-- Device frame representing digital interviews -->
    <rect x="220" y="60" width="80" height="60" rx="5" fill="white" stroke="#2b2d42" stroke-width="3"/>
    <rect x="220" y="120" width="80" height="10" rx="2" fill="#2b2d42"/>
    <line x1="235" y1="90" x2="285" y2="90" stroke="#3a86ff" stroke-width="2"/>
    <line x1="235" y1="100" x2="275" y2="100" stroke="#3a86ff" stroke-width="2"/>
    
    <!-- Checkmark symbol -->
    <path d="M330 100 L350 120 L380 70" fill="none" stroke="#4CAF50" stroke-width="8" stroke-linecap="round" stroke-linejoin="round"/>
  </g>
</svg>
